<svg width="8" height="8" viewBox="0 0 8 8" fill="none" xmlns="http://www.w3.org/2000/svg">
<path d="M3.246 7.08727C3.20733 7.0496 3.042 6.90737 2.906 6.77488C2.05067 5.99813 0.650667 3.97183 0.223333 2.91127C0.154667 2.7502 0.00933333 2.34299 0 2.12543C0 1.91695 0.048 1.71822 0.145333 1.52858C0.281333 1.29217 0.495333 1.10253 0.748 0.99862C0.923333 0.931726 1.448 0.827813 1.45733 0.827813C2.03133 0.7239 2.964 0.666748 3.99467 0.666748C4.97667 0.666748 5.87133 0.7239 6.454 0.808979C6.46333 0.818721 7.11533 0.922634 7.33867 1.03629C7.74667 1.24476 8 1.65197 8 2.08776V2.12543C7.99 2.40924 7.73667 3.00609 7.72733 3.00609C7.29933 4.0095 5.968 5.98904 5.08333 6.78462C5.08333 6.78462 4.856 7.00869 4.714 7.1061C4.51 7.25808 4.25733 7.33341 4.00467 7.33341C3.72267 7.33341 3.46 7.24834 3.246 7.08727" fill="black" fill-opacity="0.2"/>
</svg>
