<svg width="102" height="35" viewBox="0 0 102 35" fill="none" xmlns="http://www.w3.org/2000/svg">
<path opacity="0.3" d="M99.9466 32.8171C100.249 33.2792 100.869 33.4084 101.331 33.1058C101.793 32.8032 101.922 32.1834 101.62 31.7214L99.9466 32.8171ZM48.4327 1.29518L48.3083 0.30295L48.4327 1.29518ZM1.41449 33.1268C1.47772 33.6754 1.97374 34.0689 2.5224 34.0057L11.4632 32.9754C12.0119 32.9122 12.4054 32.4162 12.3422 31.8675C12.279 31.3189 11.7829 30.9253 11.2343 30.9886L3.28687 31.9044L2.37106 23.957C2.30783 23.4083 1.81181 23.0148 1.26315 23.078C0.7145 23.1412 0.320979 23.6373 0.384206 24.1859L1.41449 33.1268ZM4.37164 32.2104C4.72923 31.7895 4.67792 31.1584 4.25703 30.8009C3.83614 30.4433 3.20506 30.4946 2.84747 30.9155L4.37164 32.2104ZM8.00097 25.229C7.61842 25.6273 7.63121 26.2604 8.02954 26.6429C8.42787 27.0255 9.06091 27.0127 9.44347 26.6144L8.00097 25.229ZM12.096 23.928C12.4895 23.5405 12.4943 22.9073 12.1067 22.5139C11.7192 22.1204 11.0861 22.1156 10.6926 22.5031L12.096 23.928ZM16.3132 17.281C15.8974 17.6444 15.855 18.2762 16.2184 18.692C16.5819 19.1078 17.2136 19.1503 17.6294 18.7868L16.3132 17.281ZM20.5089 16.3522C20.9366 16.0027 21 15.3728 20.6506 14.9451C20.3012 14.5174 19.6712 14.4539 19.2435 14.8033L20.5089 16.3522ZM25.3722 10.1685C24.9186 10.4836 24.8063 11.1067 25.1214 11.5603C25.4364 12.0139 26.0595 12.1262 26.5131 11.8112L25.3722 10.1685ZM29.6469 9.73899C30.1147 9.44546 30.256 8.82826 29.9625 8.36044C29.669 7.89262 29.0518 7.75133 28.5839 8.04487L29.6469 9.73899ZM35.339 4.30877C34.8403 4.54617 34.6285 5.14287 34.8659 5.64152C35.1033 6.14018 35.7 6.35197 36.1987 6.11457L35.339 4.30877ZM39.6221 4.63179C40.1367 4.43151 40.3916 3.85191 40.1913 3.33722C39.9911 2.82253 39.4115 2.56765 38.8968 2.76793L39.6221 4.63179ZM46.3733 0.603085C45.8302 0.703226 45.4711 1.2247 45.5712 1.76783C45.6714 2.31096 46.1929 2.67007 46.736 2.56993L46.3733 0.603085ZM50.6194 2.09094C51.1705 2.05494 51.5881 1.579 51.5521 1.02789C51.5161 0.476776 51.0401 0.059196 50.489 0.0951934L50.6194 2.09094ZM59.1885 0.54519C58.6438 0.454172 58.1284 0.82198 58.0374 1.36671C57.9464 1.91145 58.3142 2.42682 58.8589 2.51784L59.1885 0.54519ZM62.9058 3.41834C63.4379 3.56608 63.9891 3.25444 64.1368 2.72229C64.2846 2.19013 63.9729 1.63896 63.4408 1.49123L62.9058 3.41834ZM71.5424 4.58374C71.0456 4.34254 70.4473 4.54977 70.2061 5.0466C69.9649 5.54343 70.1721 6.14173 70.669 6.38293L71.5424 4.58374ZM74.3521 8.35117C74.8291 8.62946 75.4414 8.46832 75.7197 7.99127C75.998 7.51422 75.8369 6.9019 75.3598 6.62362L74.3521 8.35117ZM82.5045 11.4532C82.0668 11.1163 81.439 11.1981 81.1021 11.6357C80.7653 12.0734 80.847 12.7013 81.2847 13.0381L82.5045 11.4532ZM84.5417 15.6913C84.9605 16.0514 85.5919 16.0039 85.952 15.5852C86.3121 15.1664 86.2646 14.535 85.8458 14.1749L84.5417 15.6913ZM92.0853 20.0943C91.7027 19.696 91.0697 19.6833 90.6714 20.0659C90.2731 20.4485 90.2604 21.0815 90.643 21.4798L92.0853 20.0943ZM93.4911 24.5776C93.856 24.9922 94.4879 25.0324 94.9025 24.6675C95.317 24.3026 95.3573 23.6707 94.9924 23.2562L93.4911 24.5776ZM100.384 29.9572C100.058 29.5107 99.433 29.4122 98.9865 29.7372C98.54 30.0622 98.4415 30.6877 98.7665 31.1342L100.384 29.9572ZM2.40792 33.0123C3.19133 33.6338 3.19131 33.6338 3.19129 33.6338C3.19129 33.6338 3.19128 33.6338 3.19127 33.6339C3.19126 33.6339 3.19126 33.6339 3.19126 33.6339C3.19126 33.6339 3.19128 33.6338 3.19134 33.6338C3.19145 33.6336 3.19166 33.6334 3.19197 33.633C3.19259 33.6322 3.19362 33.6309 3.19505 33.6291C3.19791 33.6255 3.2024 33.6199 3.2085 33.6123C3.22068 33.597 3.23929 33.5738 3.26423 33.5429C3.31409 33.481 3.38924 33.3883 3.48877 33.2668C3.68784 33.0239 3.98447 32.6661 4.37164 32.2104L2.84747 30.9155C2.45222 31.3807 2.14802 31.7476 1.94189 31.9991C1.83881 32.1249 1.76025 32.2218 1.70706 32.2878C1.68047 32.3208 1.66022 32.346 1.64643 32.3633C1.63953 32.3719 1.63425 32.3785 1.63059 32.3831C1.62876 32.3854 1.62734 32.3872 1.62633 32.3885C1.62582 32.3891 1.62542 32.3896 1.62511 32.39C1.62496 32.3902 1.62484 32.3904 1.62474 32.3905C1.62469 32.3905 1.62464 32.3906 1.62461 32.3906C1.62459 32.3907 1.62457 32.3907 1.62456 32.3907C1.62453 32.3907 1.62451 32.3908 2.40792 33.0123ZM9.44347 26.6144C10.2609 25.7632 11.1473 24.8624 12.096 23.928L10.6926 22.5031C9.72981 23.4513 8.83038 24.3654 8.00097 25.229L9.44347 26.6144ZM17.6294 18.7868C18.5576 17.9756 19.5186 17.1612 20.5089 16.3522L19.2435 14.8033C18.235 15.6273 17.257 16.4561 16.3132 17.281L17.6294 18.7868ZM26.5131 11.8112C27.5393 11.0985 28.5849 10.4054 29.6469 9.73899L28.5839 8.04487C27.4937 8.72893 26.4221 9.43929 25.3722 10.1685L26.5131 11.8112ZM36.1987 6.11457C37.3309 5.57552 38.4731 5.07889 39.6221 4.63179L38.8968 2.76793C37.6989 3.23405 36.5119 3.75035 35.339 4.30877L36.1987 6.11457ZM46.736 2.56993C47.3433 2.45796 47.9504 2.36347 48.5571 2.28742L48.3083 0.30295C47.6622 0.383949 47.0171 0.484396 46.3733 0.603085L46.736 2.56993ZM48.5571 2.28742C49.2485 2.20074 49.936 2.13558 50.6194 2.09094L50.489 0.0951934C49.7663 0.142398 49.0394 0.211306 48.3083 0.30295L48.5571 2.28742ZM58.8589 2.51784C60.2294 2.74683 61.579 3.04999 62.9058 3.41834L63.4408 1.49123C62.0497 1.10503 60.6315 0.786297 59.1885 0.54519L58.8589 2.51784ZM70.669 6.38293C71.9261 6.99326 73.1546 7.65264 74.3521 8.35117L75.3598 6.62362C74.1214 5.90119 72.8482 5.21765 71.5424 4.58374L70.669 6.38293ZM81.2847 13.0381C82.4124 13.9061 83.499 14.7945 84.5417 15.6913L85.8458 14.1749C84.7775 13.2562 83.6628 12.3447 82.5045 11.4532L81.2847 13.0381ZM90.643 21.4798C91.669 22.5479 92.62 23.588 93.4911 24.5776L94.9924 23.2562C94.1035 22.2464 93.1329 21.1848 92.0853 20.0943L90.643 21.4798ZM98.7665 31.1342C99.1573 31.6711 99.4543 32.0948 99.6526 32.3829C99.7518 32.5269 99.8263 32.637 99.8755 32.7103C99.9001 32.747 99.9184 32.7745 99.9303 32.7924C99.9362 32.8013 99.9406 32.8079 99.9433 32.8121C99.9447 32.8141 99.9456 32.8156 99.9462 32.8164C99.9465 32.8169 99.9466 32.8171 99.9467 32.8173C99.9468 32.8173 99.9468 32.8173 99.9468 32.8173C99.9467 32.8173 99.9467 32.8173 99.9467 32.8173C99.9467 32.8172 99.9467 32.8172 99.9467 32.8172C99.9467 32.8172 99.9466 32.8171 100.783 32.2693C101.62 31.7214 101.62 31.7213 101.62 31.7213C101.62 31.7213 101.62 31.7212 101.62 31.7212C101.62 31.7211 101.62 31.721 101.619 31.721C101.619 31.7208 101.619 31.7206 101.619 31.7203C101.619 31.7198 101.618 31.7192 101.618 31.7184C101.617 31.7167 101.615 31.7145 101.613 31.7117C101.61 31.706 101.604 31.6978 101.597 31.6873C101.583 31.6663 101.563 31.6356 101.536 31.5958C101.483 31.516 101.404 31.3994 101.3 31.2486C101.092 30.9471 100.785 30.5091 100.384 29.9572L98.7665 31.1342Z" fill="black"/>
</svg>
