<svg width="511" height="118" viewBox="0 0 511 118" fill="none" xmlns="http://www.w3.org/2000/svg">
<path d="M502.437 56.0544C502.668 58.5883 501.308 61.1989 498.289 63.8549C495.277 66.5043 490.687 69.1306 484.654 71.6933C472.593 76.8164 454.875 81.6382 432.791 85.8995C388.631 94.4208 327.105 100.684 258.683 102.665C190.262 104.646 127.922 101.969 82.448 96.0432C59.7068 93.0797 41.2069 89.3065 28.2792 84.9069C21.8125 82.7062 16.7705 80.3587 13.2937 77.8972C9.80829 75.4296 7.98188 72.9112 7.75134 70.3773C7.52081 67.8433 8.88059 65.2328 11.8999 62.5768C14.9117 59.9274 19.5012 57.3011 25.5345 54.7384C37.5959 49.6153 55.3138 44.7935 77.3977 40.5321C121.558 32.0109 183.084 25.7474 251.505 23.7664C319.927 21.7853 382.266 24.4624 427.741 30.3885C450.482 33.352 468.982 37.1252 481.91 41.5248C488.376 43.7255 493.418 46.073 496.895 48.5345C500.38 51.0021 502.207 53.5205 502.437 56.0544Z" stroke="#53BCFF" stroke-opacity="0.5"/>
<path d="M500.87 77.6229C500.257 80.1449 498.053 82.569 494.211 84.8597C490.377 87.1456 485.001 89.243 478.227 91.126C464.685 94.8905 445.685 97.7642 422.58 99.6283C376.38 103.356 313.863 103.038 245.987 97.7888C178.111 92.5391 117.75 83.3526 75.0318 72.7481C53.669 67.4448 36.7412 61.7924 25.495 56.1107C19.8696 53.2687 15.6922 50.4325 13.0901 47.6487C10.4825 44.8591 9.51629 42.1899 10.1292 39.6678C10.7421 37.1458 12.9462 34.7218 16.7884 32.4311C20.6226 30.1451 25.999 28.0477 32.7727 26.1647C46.3146 22.4002 65.3145 19.5265 88.4191 17.6625C134.62 13.9351 197.136 14.2522 265.013 19.5019C332.889 24.7516 393.25 33.9381 435.968 44.5427C457.33 49.8459 474.258 55.4984 485.504 61.18C491.13 64.022 495.307 66.8583 497.909 69.642C500.517 72.4316 501.483 75.1008 500.87 77.6229Z" stroke="#53BCFF" stroke-opacity="0.5"/>
</svg>
