<svg width="40" height="41" viewBox="0 0 40 41" fill="none" xmlns="http://www.w3.org/2000/svg">
<path fill-rule="evenodd" clip-rule="evenodd" d="M3.33325 21.0223C3.33325 12.2424 10.3499 4.33057 20.0333 4.33057C29.4999 4.33057 36.6666 12.0922 36.6666 20.9722C36.6666 31.271 28.2666 37.6639 19.9999 37.6639C17.2666 37.6639 14.2333 36.9295 11.7999 35.494C10.9499 34.9765 10.2333 34.5926 9.31659 34.8931L5.94992 35.8946C5.09992 36.1616 4.33325 35.494 4.58325 34.5926L5.69992 30.8537C5.88325 30.3362 5.84992 29.7854 5.58325 29.3514C4.14992 26.7141 3.33325 23.8265 3.33325 21.0223ZM17.8333 21.0223C17.8333 22.2074 18.7833 23.1588 19.9666 23.1755C21.1499 23.1755 22.0999 22.2074 22.0999 21.039C22.0999 19.8539 21.1499 18.9024 19.9666 18.9024C18.7999 18.8857 17.8333 19.8539 17.8333 21.0223ZM25.5166 21.039C25.5166 22.2074 26.4666 23.1755 27.6499 23.1755C28.8333 23.1755 29.7833 22.2074 29.7833 21.039C29.7833 19.8539 28.8333 18.9024 27.6499 18.9024C26.4666 18.9024 25.5166 19.8539 25.5166 21.039ZM12.2833 23.1755C11.1166 23.1755 10.1499 22.2074 10.1499 21.039C10.1499 19.8539 11.0999 18.9024 12.2833 18.9024C13.4666 18.9024 14.4166 19.8539 14.4166 21.039C14.4166 22.2074 13.4666 23.1588 12.2833 23.1755Z" fill="#4DA0ED"/>
</svg>
