<svg width="511" height="436" viewBox="0 0 511 436" fill="none" xmlns="http://www.w3.org/2000/svg">
<path opacity="0.1" d="M127.751 1.0507C146.736 27.8557 139.669 42.9159 139.669 42.9159C139.669 42.9159 -32.4495 138.426 5.45248 292.096C45.5372 454.655 239.724 466.929 318.265 391.24C318.924 390.605 318.82 390.217 318.161 390.64C257.948 428.485 180.238 398.682 166.623 376.567C166.242 375.933 167.142 375.121 167.905 375.333C262.971 403.09 309.847 358.474 316.013 348.422C316.637 347.399 316.395 346.377 315.424 345.601C310.782 341.721 296.577 329.694 289.752 321.441C339.538 330.999 384.819 296.54 392.891 289.98C393.723 289.31 393.619 288.605 392.649 288.005C385.893 284.055 358.142 268.254 337.909 262.682C337.39 262.54 337.043 262.258 337.424 262.258C363.789 261.8 423.691 262.082 451.962 227.059C452.378 226.565 452.17 225.543 451.685 225.543C422.132 226.248 393.342 213.833 388.18 211.47C387.625 211.223 387.625 211.047 388.11 211.011C397.569 210.094 482.276 190.308 510.928 115.184C511.171 114.584 510.755 114.267 510.339 114.69C474.412 151.652 395.594 160.399 303.541 157.578C210.795 154.756 159.728 137.227 65.4929 214.574C65.0771 214.926 64.0031 213.868 63.8992 212.986C56.7276 147.737 132.982 90.7416 164.683 97.9366C207.366 107.636 210.484 74.4823 267.752 107.706C267.96 107.847 268.203 107.777 268.134 107.601C242.219 65.559 144.138 9.16274 128.443 0.31004C126.988 -0.360084 127.092 0.133692 127.716 1.0507H127.751Z" fill="url(#paint0_linear_841_5396)"/>
<defs>
<linearGradient id="paint0_linear_841_5396" x1="11.4925" y1="182.678" x2="466.127" y2="296.345" gradientUnits="userSpaceOnUse">
<stop stop-color="#8FCDFF"/>
<stop offset="1" stop-color="#2D8AE3"/>
</linearGradient>
</defs>
</svg>
