<svg width="32" height="33" viewBox="0 0 32 33" fill="none" xmlns="http://www.w3.org/2000/svg">
<path fill-rule="evenodd" clip-rule="evenodd" d="M4 16.9971C4 22.9304 8.33333 27.8637 14 28.8637L14.0669 28.8102C14.0446 28.8059 14.0223 28.8015 14 28.7971V20.3304H11V16.9971H14V14.3304C14 11.3304 15.9333 9.66374 18.6667 9.66374C19.5333 9.66374 20.4667 9.79707 21.3333 9.9304V12.9971H19.8C18.3333 12.9971 18 13.7304 18 14.6637V16.9971H21.2L20.6667 20.3304H18V28.7971C17.9777 28.8015 17.9554 28.8059 17.9331 28.8102L18 28.8637C23.6667 27.8637 28 22.9304 28 16.9971C28 10.3971 22.6 4.99707 16 4.99707C9.4 4.99707 4 10.3971 4 16.9971Z" fill="#4DA0ED"/>
</svg>
