<svg width="32" height="33" viewBox="0 0 32 33" fill="none" xmlns="http://www.w3.org/2000/svg">
<path d="M24.4339 8.48097L5.16841 15.9117C3.8535 16.4393 3.8613 17.1727 4.92874 17.4997L9.73361 18.9994L11.5721 24.636C11.7956 25.2529 11.6854 25.4975 12.3332 25.4975C12.8332 25.4975 13.0549 25.2696 13.3334 24.9976C13.5105 24.8243 14.5618 23.8022 15.7357 22.6608L20.7337 26.3536C21.6533 26.861 22.3174 26.5981 22.5464 25.4994L25.8272 10.0391C26.1631 8.69245 25.3138 8.08161 24.4339 8.48097ZM10.4877 18.6548L21.3179 11.822C21.8585 11.4941 22.3543 11.6704 21.9472 12.0317L12.6738 20.3987L12.3127 24.2499L10.4877 18.6548Z" fill="#4DA0ED"/>
</svg>
