<svg width="32" height="33" viewBox="0 0 32 33" fill="none" xmlns="http://www.w3.org/2000/svg">
<path d="M16.0005 5.36084C12.8404 5.36084 12.4438 5.37466 11.2026 5.43114C9.96384 5.48787 9.11829 5.68399 8.37843 5.97175C7.61312 6.26896 6.96393 6.66654 6.31716 7.31357C5.66991 7.96036 5.27235 8.60957 4.97417 9.37466C4.6857 10.1148 4.48934 10.9606 4.43358 12.1989C4.37807 13.4401 4.36353 13.837 4.36353 16.9972C4.36353 20.1574 4.37759 20.5528 4.43383 21.7941C4.49079 23.0328 4.68691 23.8784 4.97442 24.6183C5.27186 25.3836 5.66943 26.0328 6.31644 26.6796C6.96296 27.3269 7.61215 27.7254 8.37698 28.0227C9.11732 28.3104 9.96311 28.5065 11.2016 28.5633C12.4428 28.6197 12.8391 28.6336 15.9991 28.6336C19.1594 28.6336 19.5548 28.6197 20.796 28.5633C22.0347 28.5065 22.8813 28.3104 23.6216 28.0227C24.3867 27.7254 25.0349 27.3269 25.6814 26.6796C26.3287 26.0328 26.7262 25.3836 27.0244 24.6185C27.3105 23.8784 27.5068 23.0326 27.565 21.7943C27.6208 20.5531 27.6353 20.1574 27.6353 16.9972C27.6353 13.837 27.6208 13.4404 27.565 12.1991C27.5068 10.9604 27.3105 10.1148 27.0244 9.3749C26.7262 8.60957 26.3287 7.96036 25.6814 7.31357C25.0342 6.66629 24.3869 6.26872 23.6209 5.97175C22.8791 5.68399 22.0331 5.48787 20.7943 5.43114C19.5531 5.37466 19.158 5.36084 15.9969 5.36084H16.0005ZM14.9567 7.45781C15.2665 7.45732 15.6122 7.45781 16.0005 7.45781C19.1073 7.45781 19.4756 7.46896 20.7024 7.52472C21.8369 7.5766 22.4527 7.76617 22.8628 7.92545C23.4059 8.13635 23.793 8.38848 24.2 8.79575C24.6073 9.20302 24.8594 9.5909 25.0708 10.1339C25.23 10.5436 25.4199 11.1594 25.4715 12.2939C25.5272 13.5206 25.5394 13.8891 25.5394 16.9945C25.5394 20.1 25.5272 20.4685 25.4715 21.6951C25.4196 22.8297 25.23 23.4454 25.0708 23.8551C24.8599 24.3982 24.6073 24.7848 24.2 25.1919C23.7928 25.5991 23.4061 25.8513 22.8628 26.0622C22.4532 26.2222 21.8369 26.4113 20.7024 26.4631C19.4758 26.5189 19.1073 26.531 16.0005 26.531C12.8934 26.531 12.5252 26.5189 11.2986 26.4631C10.1641 26.4108 9.54834 26.2212 9.13793 26.0619C8.59491 25.851 8.20705 25.5989 7.79978 25.1916C7.39252 24.7844 7.14041 24.3974 6.92902 23.8542C6.76976 23.4445 6.57994 22.8287 6.52831 21.6942C6.47255 20.4675 6.4614 20.099 6.4614 16.9916C6.4614 13.8842 6.47255 13.5177 6.52831 12.291C6.58019 11.1565 6.76976 10.5407 6.92902 10.1305C7.13993 9.58751 7.39252 9.19963 7.79978 8.79235C8.20705 8.38508 8.59491 8.13296 9.13793 7.92157C9.5481 7.76157 10.1641 7.57248 11.2986 7.52036C12.372 7.47187 12.788 7.45732 14.9567 7.4549V7.45781ZM22.2117 9.38993C21.4408 9.38993 20.8154 10.0147 20.8154 10.7858C20.8154 11.5567 21.4408 12.1822 22.2117 12.1822C22.9826 12.1822 23.608 11.5567 23.608 10.7858C23.608 10.0149 22.9826 9.38945 22.2117 9.38945V9.38993ZM16.0005 11.0214C12.7005 11.0214 10.0249 13.6971 10.0249 16.9972C10.0249 20.2973 12.7005 22.9717 16.0005 22.9717C19.3005 22.9717 21.9751 20.2973 21.9751 16.9972C21.9751 13.6971 19.3003 11.0214 16.0003 11.0214H16.0005ZM16.0005 13.1184C18.1425 13.1184 19.8792 14.8549 19.8792 16.9972C19.8792 19.1393 18.1425 20.876 16.0005 20.876C13.8583 20.876 12.1218 19.1393 12.1218 16.9972C12.1218 14.8549 13.8583 13.1184 16.0005 13.1184Z" fill="#4DA0ED"/>
</svg>
