<svg width="32" height="33" viewBox="0 0 32 33" fill="none" xmlns="http://www.w3.org/2000/svg">
<path d="M8.73563 12.2237C10.0448 12.2237 11.106 11.1624 11.106 9.85331C11.106 8.54417 10.0448 7.48291 8.73563 7.48291C7.4265 7.48291 6.36523 8.54417 6.36523 9.85331C6.36523 11.1624 7.4265 12.2237 8.73563 12.2237Z" fill="#4DA0ED"/>
<path d="M13.2769 13.9755H17.2054V15.7752C17.2054 15.7752 18.2715 13.6431 21.1721 13.6431C23.7595 13.6431 25.9029 14.9177 25.9029 18.8029V26.9957H21.8319V19.7957C21.8319 17.5038 20.6083 17.2517 19.6759 17.2517C17.7409 17.2517 17.4096 18.9208 17.4096 20.0946V26.9957H13.2769V13.9755Z" fill="#4DA0ED"/>
<path d="M6.6693 13.9755H10.802V26.9956H6.6693V13.9755Z" fill="#4DA0ED"/>
</svg>
