<svg width="32" height="33" viewBox="0 0 32 33" fill="none" xmlns="http://www.w3.org/2000/svg">
<path fill-rule="evenodd" clip-rule="evenodd" d="M24.8819 13.0985C24.8896 13.2984 24.8922 13.4982 24.8922 13.698C24.8922 19.7577 20.6295 26.7532 12.8346 26.7532C10.4401 26.7532 8.2136 25.99 6.33765 24.6909C6.66926 24.7272 7.00604 24.7546 7.34798 24.7546C9.33333 24.7546 11.1619 24.0185 12.6124 22.783C10.7579 22.7557 9.19208 21.4202 8.65203 19.6032C8.91128 19.6578 9.17828 19.6851 9.45131 19.6851C9.83632 19.6851 10.2101 19.6306 10.5684 19.5216C8.62789 19.1037 7.16624 17.2504 7.16624 15.0246C7.16624 14.9974 7.16624 14.9882 7.16624 14.9701C7.73816 15.3062 8.39275 15.515 9.08784 15.5423C7.94917 14.7156 7.20068 13.3074 7.20068 11.7176C7.20068 10.8818 7.40912 10.0913 7.77604 9.40996C9.8656 12.19 12.9896 14.0161 16.5116 14.2068C16.4392 13.8707 16.4022 13.5165 16.4022 13.1622C16.4022 10.6275 18.2997 8.57422 20.6407 8.57422C21.8595 8.57422 22.9603 9.12848 23.7329 10.0188C24.7001 9.81894 25.6063 9.43739 26.4262 8.91047C26.1084 9.98249 25.4374 10.8817 24.5606 11.445C25.4185 11.336 26.2368 11.0909 26.9956 10.7275C26.4262 11.645 25.7096 12.4535 24.8819 13.0985Z" fill="#4DA0ED"/>
</svg>
