<svg width="280" height="52" viewBox="0 0 280 52" fill="none" xmlns="http://www.w3.org/2000/svg">
<path d="M68.208 35.8552V15.8878L71.5403 15V22.9573C72.4491 21.0156 74.2128 20.0462 76.6632 20.0462C79.9686 20.0462 82.53 22.3201 82.53 26.9526V35.8552H79.1707V26.9526C79.1707 24.5126 77.905 23.3197 75.6735 23.3197C73.058 23.3197 71.5703 25.0954 71.5703 28.0337V35.8552H68.211H68.208Z" fill="#1F272D"/>
<path d="M84.2846 28.8943V20.3813H87.6439V28.8943C87.6439 31.6937 89.0206 32.9168 91.3061 32.9168C93.5916 32.9168 94.9953 31.6968 94.9953 28.8943V20.3813H98.3546V28.8943C98.3546 33.5238 95.7092 36.1873 91.3031 36.1873C86.897 36.1873 84.2786 33.5238 84.2786 28.8943H84.2846Z" fill="#1F272D"/>
<path d="M100.283 35.8551V20.3813H103.202L103.478 23.072C104.525 20.937 106.369 20.022 108.547 20.022C110.583 20.022 112.431 20.9642 113.421 23.072C114.357 21.3537 115.844 20.022 118.901 20.022C122.482 20.022 124.986 22.3805 124.986 27.1217V35.8581H121.627V27.0401C121.627 24.5457 120.388 23.3257 118.13 23.3257C115.514 23.3257 114.303 25.2675 114.303 27.9008V35.8581H110.943V27.0401C110.943 24.5457 109.704 23.3257 107.473 23.3257C104.857 23.3257 103.646 25.2675 103.646 28.0397V35.8611H100.286L100.283 35.8551Z" fill="#1F272D"/>
<path d="M126.177 28.1184C126.177 23.3198 128.819 20.0493 134.329 20.0493C139.839 20.0493 142.482 23.3228 142.482 28.1184C142.482 32.9139 139.839 36.1874 134.329 36.1874C128.819 36.1874 126.177 32.9169 126.177 28.1184ZM138.957 28.1184C138.957 25.2072 137.692 23.3198 134.329 23.3198C130.967 23.3198 129.701 25.2042 129.701 28.1184C129.701 31.0325 130.967 32.9169 134.329 32.9169C137.692 32.9169 138.957 31.0325 138.957 28.1184Z" fill="#1F272D"/>
<path d="M144.137 28.3116C144.137 23.6821 146.726 20.4358 151.492 20.4358C153.999 20.4358 155.652 21.1575 156.918 22.1541L156.063 23.4859C154.767 22.5165 153.336 21.9608 151.684 21.9608C147.883 21.9608 145.79 24.5941 145.79 28.3116C145.79 32.029 147.883 34.6624 151.684 34.6624C153.501 34.6624 154.962 34.1067 156.393 33.0256L157.218 34.3302C155.73 35.3841 154.077 36.1874 151.213 36.1874C146.834 36.1874 144.134 33.1101 144.134 28.3116H144.137Z" fill="#53BCFF"/>
<path d="M157.122 28.3116C157.122 23.5704 159.764 20.4358 164.53 20.4358C169.296 20.4358 171.939 23.5704 171.939 28.3116C171.939 33.0528 169.293 36.1874 164.53 36.1874C159.767 36.1874 157.122 33.0528 157.122 28.3116ZM170.286 28.3116C170.286 24.4854 168.276 21.9608 164.53 21.9608C160.784 21.9608 158.774 24.4854 158.774 28.3116C158.774 32.1377 160.787 34.6624 164.53 34.6624C168.273 34.6624 170.286 32.1377 170.286 28.3116Z" fill="#53BCFF"/>
<path d="M173.846 35.8552V20.771H175.25L175.361 23.7939C176.462 21.5471 178.639 20.4116 181.144 20.4116C183.456 20.4116 185.853 21.7706 186.624 24.5428C187.697 21.9095 189.737 20.4116 192.601 20.4116C196.401 20.4116 198.744 22.6856 198.744 27.2335V35.8582H197.202V27.2335C197.202 23.6006 195.466 21.9367 192.493 21.9367C189.134 21.9367 187.067 24.6002 187.067 28.1757V35.8582H185.526V27.2335C185.526 23.6006 183.789 21.9367 180.817 21.9367C177.373 21.9367 175.391 24.6002 175.391 28.3418V35.8552H173.849H173.846Z" fill="#53BCFF"/>
<path d="M201.389 35.8552V20.771H202.793L202.904 23.7939C204.005 21.5471 206.182 20.4116 208.687 20.4116C210.999 20.4116 213.396 21.7706 214.167 24.5428C215.241 21.9095 217.28 20.4116 220.144 20.4116C223.945 20.4116 226.287 22.6856 226.287 27.2335V35.8582H224.746V27.2335C224.746 23.6006 223.009 21.9367 220.037 21.9367C216.677 21.9367 214.611 24.6002 214.611 28.1757V35.8582H213.069V27.2335C213.069 23.6006 211.332 21.9367 208.36 21.9367C204.917 21.9367 202.934 24.6002 202.934 28.3418V35.8552H201.392H201.389Z" fill="#53BCFF"/>
<path d="M228.072 28.3116C228.072 23.6821 230.771 20.4358 235.369 20.4358C239.967 20.4358 242.613 23.6791 242.613 28.3116C242.613 28.5622 242.613 28.6438 242.586 28.9216H229.697C229.916 32.4428 231.791 34.6624 235.729 34.6624C237.382 34.6624 239.475 34.2184 241.155 33.0256L241.872 34.4389C240.108 35.6045 237.85 36.1874 235.756 36.1874C230.606 36.1874 228.072 32.9441 228.072 28.3116ZM240.933 27.4237C240.603 24.1804 238.594 21.9608 235.369 21.9608C232.145 21.9608 230.081 24.1804 229.751 27.4237H240.933Z" fill="#53BCFF"/>
<path d="M244.358 20.7709H245.762L245.873 23.9327C246.893 21.2994 248.791 20.4387 251.161 20.4387C251.656 20.4387 252.208 20.5233 252.457 20.5776V22.2416C252.154 22.157 251.629 22.1027 251.161 22.1027C247.802 22.1027 245.9 24.5971 245.9 28.3417V35.8551H244.358V20.7709Z" fill="#53BCFF"/>
<path d="M252.244 28.3116C252.244 23.6821 254.832 20.4358 259.598 20.4358C262.106 20.4358 263.758 21.1575 265.024 22.1541L264.169 23.4859C262.874 22.5165 261.443 21.9608 259.79 21.9608C255.99 21.9608 253.896 24.5941 253.896 28.3116C253.896 32.029 255.99 34.6624 259.79 34.6624C261.608 34.6624 263.068 34.1067 264.499 33.0256L265.324 34.3302C263.836 35.3841 262.184 36.1874 259.319 36.1874C254.94 36.1874 252.241 33.1101 252.241 28.3116H252.244Z" fill="#53BCFF"/>
<path d="M265.213 28.3116C265.213 23.6821 267.913 20.4358 272.511 20.4358C277.109 20.4358 279.754 23.6791 279.754 28.3116C279.754 28.5622 279.754 28.6438 279.727 28.9216H266.839C267.058 32.4428 268.932 34.6624 272.871 34.6624C274.523 34.6624 276.617 34.2184 278.296 33.0256L279.013 34.4389C277.25 35.6045 274.991 36.1874 272.898 36.1874C267.748 36.1874 265.213 32.9441 265.213 28.3116ZM278.074 27.4237C277.745 24.1804 275.735 21.9608 272.511 21.9608C269.286 21.9608 267.223 24.1804 266.893 27.4237H278.074Z" fill="#53BCFF"/>
<path d="M14.0502 0.115485C16.1383 3.06167 15.361 4.71696 15.361 4.71696C15.361 4.71696 -3.56886 15.2147 0.599674 32.1049C5.00826 49.9719 26.3653 51.321 35.0034 43.0019C35.0758 42.9321 35.0644 42.8895 34.992 42.936C28.3696 47.0955 19.8229 43.8198 18.3255 41.3892C18.2836 41.3195 18.3826 41.2303 18.4664 41.2536C28.9221 44.3044 34.0775 39.4006 34.7557 38.2957C34.8243 38.1833 34.7976 38.0709 34.691 37.9856C34.1804 37.5592 32.6181 36.2373 31.8675 35.3302C37.343 36.3807 42.3231 32.5933 43.2109 31.8723C43.3024 31.7986 43.2909 31.7211 43.1842 31.6552C42.4412 31.221 39.3891 29.4843 37.1639 28.8718C37.1067 28.8563 37.0686 28.8253 37.1105 28.8253C40.0102 28.7749 46.5983 28.8059 49.7076 24.9565C49.7533 24.9022 49.7305 24.7898 49.6771 24.7898C46.4269 24.8673 43.2605 23.5028 42.6927 23.2431C42.6317 23.2159 42.6317 23.1965 42.6851 23.1927C43.7253 23.0919 53.0416 20.9171 56.1928 12.66C56.2195 12.5941 56.1738 12.5592 56.128 12.6058C52.1767 16.6684 43.5081 17.6298 33.384 17.3197C23.1837 17.0095 17.5672 15.0829 7.20303 23.5842C7.1573 23.623 7.03918 23.5067 7.02775 23.4097C6.23901 16.2381 14.6256 9.97358 18.1121 10.7644C22.8064 11.8305 23.1494 8.18649 29.4479 11.8382C29.4708 11.8537 29.4974 11.846 29.4898 11.8266C26.6397 7.20572 15.8525 1.00709 14.1264 0.0340771C13.9664 -0.0395775 13.9778 0.0146943 14.0464 0.115485H14.0502Z" fill="url(#paint0_linear_841_5711)"/>
<defs>
<linearGradient id="paint0_linear_841_5711" x1="1.26396" y1="20.0785" x2="51.2617" y2="32.5868" gradientUnits="userSpaceOnUse">
<stop stop-color="#8FCDFF"/>
<stop offset="1" stop-color="#2D8AE3"/>
</linearGradient>
</defs>
</svg>
