<svg width="144" height="62" viewBox="0 0 144 62" fill="none" xmlns="http://www.w3.org/2000/svg">
<path d="M140.744 29.308C140.873 31.9485 139.22 34.6598 135.88 37.309C132.552 39.9484 127.639 42.4494 121.482 44.668C109.172 49.103 91.9972 52.3703 72.8794 53.4038C53.7617 54.4373 36.3596 53.0392 23.6836 49.955C17.3425 48.412 12.2127 46.4539 8.64561 44.1873C5.06532 41.9123 3.15768 39.3934 3.02902 36.7529C2.90036 34.1125 4.55315 31.4011 7.89351 28.752C11.2216 26.1126 16.134 23.6116 22.2919 21.393C34.6015 16.958 51.7763 13.6907 70.894 12.6572C90.0117 11.6237 107.414 13.0217 120.09 16.106C126.431 17.6489 131.561 19.607 135.128 21.8737C138.708 24.1487 140.616 26.6676 140.744 29.308Z" stroke="#53BCFF" stroke-opacity="0.5"/>
<path d="M140.31 40.507C139.969 43.1259 137.866 45.465 134.115 47.4119C130.378 49.3515 125.109 50.844 118.666 51.8145C105.787 53.7546 88.335 53.5919 69.3695 50.8531C50.4039 48.1143 33.5542 43.3235 21.6463 37.8041C15.6893 35.0429 10.996 32.1118 7.89253 29.1843C4.77751 26.246 3.34945 23.3968 3.69032 20.7779C4.0312 18.1591 6.13457 15.8199 9.88546 13.873C13.6224 11.9334 18.8915 10.4409 25.3342 9.47039C38.213 7.53036 55.6652 7.69301 74.6307 10.4318C93.5963 13.1706 110.446 17.9614 122.354 23.4809C128.311 26.242 133.004 29.1732 136.108 32.1006C139.223 35.039 140.651 37.8881 140.31 40.507Z" stroke="#53BCFF" stroke-opacity="0.5"/>
</svg>
