<svg width="24" height="24" viewBox="0 0 24 24" fill="none" xmlns="http://www.w3.org/2000/svg">
<path opacity="0.4" d="M14.4183 5.49C13.9422 5.40206 13.505 5.70586 13.4144 6.17054C13.3238 6.63522 13.6285 7.08891 14.0916 7.17984C15.4859 7.45166 16.5624 8.53092 16.8353 9.92995V9.93095C16.913 10.3337 17.2675 10.6265 17.6759 10.6265C17.7306 10.6265 17.7854 10.6215 17.8412 10.6115C18.3043 10.5186 18.609 10.0659 18.5184 9.60018C18.1111 7.51062 16.5027 5.89672 14.4183 5.49Z" fill="#4DA0ED"/>
<path opacity="0.4" d="M14.3561 2.00793C14.133 1.97595 13.9089 2.04191 13.7307 2.18381C13.5474 2.32771 13.4329 2.53557 13.408 2.76841C13.3552 3.23908 13.6948 3.66479 14.1649 3.71776C17.4065 4.07951 19.9262 6.60477 20.2907 9.85654C20.3395 10.2922 20.705 10.621 21.1412 10.621C21.174 10.621 21.2059 10.619 21.2388 10.615C21.4668 10.59 21.67 10.4771 21.8134 10.2972C21.9558 10.1174 22.0206 9.89351 21.9947 9.66467C21.5405 5.60746 18.4005 2.45862 14.3561 2.00793Z" fill="#4DA0ED"/>
<path d="M17.6049 14.6729C16.9566 14.535 16.4437 14.8348 15.9896 15.0967C15.5245 15.3665 14.6391 16.081 14.1332 15.8971C11.5379 14.8338 9.09693 12.5704 8.04028 9.97617C7.85405 9.45953 8.56811 8.57314 8.83601 8.10546C9.09793 7.65177 9.39272 7.13513 9.25827 6.48557C9.13677 5.90097 7.56524 3.90934 7.00952 3.36472C6.64204 3.00496 6.26758 2.8071 5.88216 2.77412C4.43313 2.71316 2.81479 4.63884 2.53095 5.09952C1.81888 6.08185 1.82386 7.38895 2.5429 8.97386C4.27577 13.2309 10.8298 19.6555 15.1201 21.4463C15.9109 21.815 16.6359 21.9999 17.2862 21.9999C17.9226 21.9999 18.4893 21.823 18.9763 21.4723C19.3428 21.2614 21.3565 19.5696 21.3027 18.0876C21.2718 17.7099 21.0736 17.3321 20.7171 16.9664C20.1734 16.4078 18.1875 14.7959 17.6049 14.6729Z" fill="#4DA0ED"/>
</svg>
