<svg width="232" height="210" viewBox="0 0 232 210" fill="none" xmlns="http://www.w3.org/2000/svg">
<path opacity="0.5" d="M1.88 202V188H4.02L10.14 198.22H9.02L15.04 188H17.18L17.2 202H14.74L14.72 191.86H15.24L10.12 200.4H8.96L3.76 191.86H4.36V202H1.88ZM25.9416 202.14C24.8482 202.14 23.8749 201.907 23.0216 201.44C22.1682 200.96 21.4949 200.307 21.0016 199.48C20.5082 198.653 20.2616 197.713 20.2616 196.66C20.2616 195.593 20.5082 194.653 21.0016 193.84C21.4949 193.013 22.1682 192.367 23.0216 191.9C23.8749 191.433 24.8482 191.2 25.9416 191.2C27.0482 191.2 28.0282 191.433 28.8816 191.9C29.7482 192.367 30.4216 193.007 30.9016 193.82C31.3949 194.633 31.6416 195.58 31.6416 196.66C31.6416 197.713 31.3949 198.653 30.9016 199.48C30.4216 200.307 29.7482 200.96 28.8816 201.44C28.0282 201.907 27.0482 202.14 25.9416 202.14ZM25.9416 200C26.5549 200 27.1016 199.867 27.5816 199.6C28.0616 199.333 28.4349 198.947 28.7016 198.44C28.9816 197.933 29.1216 197.34 29.1216 196.66C29.1216 195.967 28.9816 195.373 28.7016 194.88C28.4349 194.373 28.0616 193.987 27.5816 193.72C27.1016 193.453 26.5616 193.32 25.9616 193.32C25.3482 193.32 24.8016 193.453 24.3216 193.72C23.8549 193.987 23.4816 194.373 23.2016 194.88C22.9216 195.373 22.7816 195.967 22.7816 196.66C22.7816 197.34 22.9216 197.933 23.2016 198.44C23.4816 198.947 23.8549 199.333 24.3216 199.6C24.8016 199.867 25.3416 200 25.9416 200ZM37.7322 202.14C36.8389 202.14 35.9789 202.027 35.1522 201.8C34.3389 201.56 33.6922 201.273 33.2122 200.94L34.1722 199.04C34.6522 199.347 35.2255 199.6 35.8922 199.8C36.5589 200 37.2255 200.1 37.8922 200.1C38.6789 200.1 39.2455 199.993 39.5922 199.78C39.9522 199.567 40.1322 199.28 40.1322 198.92C40.1322 198.627 40.0122 198.407 39.7722 198.26C39.5322 198.1 39.2189 197.98 38.8322 197.9C38.4455 197.82 38.0122 197.747 37.5322 197.68C37.0655 197.613 36.5922 197.527 36.1122 197.42C35.6455 197.3 35.2189 197.133 34.8322 196.92C34.4455 196.693 34.1322 196.393 33.8922 196.02C33.6522 195.647 33.5322 195.153 33.5322 194.54C33.5322 193.86 33.7255 193.273 34.1122 192.78C34.4989 192.273 35.0389 191.887 35.7322 191.62C36.4389 191.34 37.2722 191.2 38.2322 191.2C38.9522 191.2 39.6789 191.28 40.4122 191.44C41.1455 191.6 41.7522 191.827 42.2322 192.12L41.2722 194.02C40.7655 193.713 40.2522 193.507 39.7322 193.4C39.2255 193.28 38.7189 193.22 38.2122 193.22C37.4522 193.22 36.8855 193.333 36.5122 193.56C36.1522 193.787 35.9722 194.073 35.9722 194.42C35.9722 194.74 36.0922 194.98 36.3322 195.14C36.5722 195.3 36.8855 195.427 37.2722 195.52C37.6589 195.613 38.0855 195.693 38.5522 195.76C39.0322 195.813 39.5055 195.9 39.9722 196.02C40.4389 196.14 40.8655 196.307 41.2522 196.52C41.6522 196.72 41.9722 197.007 42.2122 197.38C42.4522 197.753 42.5722 198.24 42.5722 198.84C42.5722 199.507 42.3722 200.087 41.9722 200.58C41.5855 201.073 41.0322 201.46 40.3122 201.74C39.5922 202.007 38.7322 202.14 37.7322 202.14ZM45.1252 202V187.16H47.6252V202H45.1252ZM57.8864 202V199.84L57.7464 199.38V195.6C57.7464 194.867 57.5264 194.3 57.0864 193.9C56.6464 193.487 55.9797 193.28 55.0864 193.28C54.4864 193.28 53.8931 193.373 53.3064 193.56C52.7331 193.747 52.2464 194.007 51.8464 194.34L50.8664 192.52C51.4397 192.08 52.1197 191.753 52.9064 191.54C53.7064 191.313 54.5331 191.2 55.3864 191.2C56.9331 191.2 58.1264 191.573 58.9664 192.32C59.8197 193.053 60.2464 194.193 60.2464 195.74V202H57.8864ZM54.5264 202.14C53.7264 202.14 53.0264 202.007 52.4264 201.74C51.8264 201.46 51.3597 201.08 51.0264 200.6C50.7064 200.107 50.5464 199.553 50.5464 198.94C50.5464 198.34 50.6864 197.8 50.9664 197.32C51.2597 196.84 51.7331 196.46 52.3864 196.18C53.0397 195.9 53.9064 195.76 54.9864 195.76H58.0864V197.42H55.1664C54.3131 197.42 53.7397 197.56 53.4464 197.84C53.1531 198.107 53.0064 198.44 53.0064 198.84C53.0064 199.293 53.1864 199.653 53.5464 199.92C53.9064 200.187 54.4064 200.32 55.0464 200.32C55.6597 200.32 56.2064 200.18 56.6864 199.9C57.1797 199.62 57.5331 199.207 57.7464 198.66L58.1664 200.16C57.9264 200.787 57.4931 201.273 56.8664 201.62C56.2531 201.967 55.4731 202.14 54.5264 202.14ZM67.1548 202.14C66.2615 202.14 65.4015 202.027 64.5748 201.8C63.7615 201.56 63.1148 201.273 62.6348 200.94L63.5948 199.04C64.0748 199.347 64.6482 199.6 65.3148 199.8C65.9815 200 66.6482 200.1 67.3148 200.1C68.1015 200.1 68.6682 199.993 69.0148 199.78C69.3748 199.567 69.5548 199.28 69.5548 198.92C69.5548 198.627 69.4348 198.407 69.1948 198.26C68.9548 198.1 68.6415 197.98 68.2548 197.9C67.8682 197.82 67.4348 197.747 66.9548 197.68C66.4882 197.613 66.0148 197.527 65.5348 197.42C65.0682 197.3 64.6415 197.133 64.2548 196.92C63.8682 196.693 63.5548 196.393 63.3148 196.02C63.0748 195.647 62.9548 195.153 62.9548 194.54C62.9548 193.86 63.1482 193.273 63.5348 192.78C63.9215 192.273 64.4615 191.887 65.1548 191.62C65.8615 191.34 66.6948 191.2 67.6548 191.2C68.3748 191.2 69.1015 191.28 69.8348 191.44C70.5682 191.6 71.1748 191.827 71.6548 192.12L70.6948 194.02C70.1882 193.713 69.6748 193.507 69.1548 193.4C68.6482 193.28 68.1415 193.22 67.6348 193.22C66.8748 193.22 66.3082 193.333 65.9348 193.56C65.5748 193.787 65.3948 194.073 65.3948 194.42C65.3948 194.74 65.5148 194.98 65.7548 195.14C65.9948 195.3 66.3082 195.427 66.6948 195.52C67.0815 195.613 67.5082 195.693 67.9748 195.76C68.4548 195.813 68.9282 195.9 69.3948 196.02C69.8615 196.14 70.2882 196.307 70.6748 196.52C71.0748 196.72 71.3948 197.007 71.6348 197.38C71.8748 197.753 71.9948 198.24 71.9948 198.84C71.9948 199.507 71.7948 200.087 71.3948 200.58C71.0082 201.073 70.4548 201.46 69.7348 201.74C69.0148 202.007 68.1548 202.14 67.1548 202.14ZM80.6078 191.2C81.4611 191.2 82.2211 191.367 82.8878 191.7C83.5678 192.033 84.1011 192.547 84.4878 193.24C84.8745 193.92 85.0678 194.8 85.0678 195.88V202H82.5678V196.2C82.5678 195.253 82.3411 194.547 81.8878 194.08C81.4478 193.613 80.8278 193.38 80.0278 193.38C79.4411 193.38 78.9211 193.5 78.4678 193.74C78.0145 193.98 77.6611 194.34 77.4078 194.82C77.1678 195.287 77.0478 195.88 77.0478 196.6V202H74.5478V187.16H77.0478V194.2L76.5078 193.32C76.8811 192.64 77.4211 192.12 78.1278 191.76C78.8478 191.387 79.6745 191.2 80.6078 191.2ZM93.1592 202.14C92.2526 202.14 91.4526 201.973 90.7592 201.64C90.0659 201.293 89.5259 200.773 89.1392 200.08C88.7526 199.373 88.5592 198.487 88.5592 197.42V191.32H91.0592V197.08C91.0592 198.04 91.2726 198.76 91.6992 199.24C92.1392 199.707 92.7592 199.94 93.5592 199.94C94.1459 199.94 94.6526 199.82 95.0792 199.58C95.5192 199.34 95.8592 198.98 96.0992 198.5C96.3526 198.02 96.4792 197.427 96.4792 196.72V191.32H98.9792V202H96.5992V199.12L97.0192 200C96.6592 200.693 96.1326 201.227 95.4392 201.6C94.7459 201.96 93.9859 202.14 93.1592 202.14ZM105.492 202L100.912 191.32H103.512L107.452 200.74H106.172L110.252 191.32H112.652L108.072 202H105.492ZM119.222 202.14C118.102 202.14 117.102 201.907 116.222 201.44C115.355 200.96 114.675 200.307 114.182 199.48C113.689 198.653 113.442 197.713 113.442 196.66C113.442 195.593 113.689 194.653 114.182 193.84C114.675 193.013 115.355 192.367 116.222 191.9C117.102 191.433 118.102 191.2 119.222 191.2C120.262 191.2 121.175 191.413 121.962 191.84C122.762 192.253 123.369 192.867 123.782 193.68L121.862 194.8C121.542 194.293 121.149 193.92 120.682 193.68C120.229 193.44 119.735 193.32 119.202 193.32C118.589 193.32 118.035 193.453 117.542 193.72C117.049 193.987 116.662 194.373 116.382 194.88C116.102 195.373 115.962 195.967 115.962 196.66C115.962 197.353 116.102 197.953 116.382 198.46C116.662 198.953 117.049 199.333 117.542 199.6C118.035 199.867 118.589 200 119.202 200C119.735 200 120.229 199.88 120.682 199.64C121.149 199.4 121.542 199.027 121.862 198.52L123.782 199.64C123.369 200.44 122.762 201.06 121.962 201.5C121.175 201.927 120.262 202.14 119.222 202.14ZM132.305 191.2C133.159 191.2 133.919 191.367 134.585 191.7C135.265 192.033 135.799 192.547 136.185 193.24C136.572 193.92 136.765 194.8 136.765 195.88V202H134.265V196.2C134.265 195.253 134.039 194.547 133.585 194.08C133.145 193.613 132.525 193.38 131.725 193.38C131.139 193.38 130.619 193.5 130.165 193.74C129.712 193.98 129.359 194.34 129.105 194.82C128.865 195.287 128.745 195.88 128.745 196.6V202H126.245V187.16H128.745V194.2L128.205 193.32C128.579 192.64 129.119 192.12 129.825 191.76C130.545 191.387 131.372 191.2 132.305 191.2ZM146.917 202V199.84L146.777 199.38V195.6C146.777 194.867 146.557 194.3 146.117 193.9C145.677 193.487 145.01 193.28 144.117 193.28C143.517 193.28 142.924 193.373 142.337 193.56C141.764 193.747 141.277 194.007 140.877 194.34L139.897 192.52C140.47 192.08 141.15 191.753 141.937 191.54C142.737 191.313 143.564 191.2 144.417 191.2C145.964 191.2 147.157 191.573 147.997 192.32C148.85 193.053 149.277 194.193 149.277 195.74V202H146.917ZM143.557 202.14C142.757 202.14 142.057 202.007 141.457 201.74C140.857 201.46 140.39 201.08 140.057 200.6C139.737 200.107 139.577 199.553 139.577 198.94C139.577 198.34 139.717 197.8 139.997 197.32C140.29 196.84 140.764 196.46 141.417 196.18C142.07 195.9 142.937 195.76 144.017 195.76H147.117V197.42H144.197C143.344 197.42 142.77 197.56 142.477 197.84C142.184 198.107 142.037 198.44 142.037 198.84C142.037 199.293 142.217 199.653 142.577 199.92C142.937 200.187 143.437 200.32 144.077 200.32C144.69 200.32 145.237 200.18 145.717 199.9C146.21 199.62 146.564 199.207 146.777 198.66L147.197 200.16C146.957 200.787 146.524 201.273 145.897 201.62C145.284 201.967 144.504 202.14 143.557 202.14ZM158.945 191.2C159.799 191.2 160.559 191.367 161.225 191.7C161.905 192.033 162.439 192.547 162.825 193.24C163.212 193.92 163.405 194.8 163.405 195.88V202H160.905V196.2C160.905 195.253 160.679 194.547 160.225 194.08C159.785 193.613 159.165 193.38 158.365 193.38C157.779 193.38 157.259 193.5 156.805 193.74C156.352 193.98 155.999 194.34 155.745 194.82C155.505 195.287 155.385 195.88 155.385 196.6V202H152.885V191.32H155.265V194.2L154.845 193.32C155.219 192.64 155.759 192.12 156.465 191.76C157.185 191.387 158.012 191.2 158.945 191.2ZM166.977 202V187.16H169.477V202H166.977ZM173.158 202V191.32H175.658V202H173.158ZM174.418 189.56C173.951 189.56 173.565 189.413 173.258 189.12C172.965 188.827 172.818 188.473 172.818 188.06C172.818 187.633 172.965 187.28 173.258 187C173.565 186.707 173.951 186.56 174.418 186.56C174.885 186.56 175.265 186.7 175.558 186.98C175.865 187.247 176.018 187.587 176.018 188C176.018 188.44 175.871 188.813 175.578 189.12C175.285 189.413 174.898 189.56 174.418 189.56ZM181.379 199.62L181.439 196.48L187.019 191.32H190.019L185.279 196.08L183.959 197.18L181.379 199.62ZM179.339 202V187.16H181.839V202H179.339ZM187.399 202L183.499 197.18L185.079 195.18L190.439 202H187.399Z" fill="#1F272D"/>
<path opacity="0.3" d="M92.8752 152.722L93.2802 154.664L89.3954 155.474L88.9904 153.532L92.8752 152.722ZM120.925 36.2191L119.707 34.6525L120.925 36.2191ZM231.554 14.9116C232.236 15.7701 232.092 17.0182 231.233 17.6993L217.243 28.7981C216.385 29.4792 215.137 29.3353 214.456 28.4768C213.775 27.6184 213.918 26.3703 214.777 25.6892L227.212 15.8236L217.347 3.38811C216.666 2.52962 216.809 1.28155 217.668 0.60047C218.526 -0.0806093 219.775 0.0632105 220.456 0.921701L231.554 14.9116ZM223.252 17.5621C222.158 17.4883 221.332 16.5421 221.406 15.4487C221.479 14.3554 222.426 13.5289 223.519 13.6027L223.252 17.5621ZM210.119 13.0516C211.215 13.0693 212.089 13.9719 212.071 15.0676C212.054 16.1633 211.151 17.0372 210.055 17.0195L210.119 13.0516ZM196.824 17.133C195.728 17.1701 194.811 16.3123 194.773 15.2171C194.736 14.1219 195.594 13.204 196.689 13.1669L196.824 17.133ZM179.938 14.3098C181.027 14.1955 182.004 14.9863 182.118 16.0761C182.232 17.166 181.442 18.1422 180.352 18.2566L179.938 14.3098ZM167.296 20.0663C166.216 20.2551 165.188 19.5332 164.999 18.4538C164.81 17.3743 165.532 16.3461 166.612 16.1572L167.296 20.0663ZM153.437 19.0255C154.496 18.745 155.582 19.3763 155.863 20.4357C156.143 21.495 155.512 22.5812 154.453 22.8617L153.437 19.0255ZM141.99 26.8777C140.968 27.2738 139.819 26.7665 139.423 25.7447C139.027 24.723 139.534 23.5736 140.556 23.1775L141.99 26.8777ZM125.318 30.7287C126.246 30.1447 127.471 30.4231 128.055 31.3503C128.639 32.2776 128.36 33.5028 127.433 34.0867L125.318 30.7287ZM116.663 42.5249C115.873 43.2842 114.617 43.2593 113.858 42.4691C113.099 41.679 113.123 40.4229 113.914 39.6636L116.663 42.5249ZM104.05 51.3005C104.672 50.3985 105.908 50.1716 106.81 50.7938C107.712 51.4159 107.939 52.6516 107.317 53.5537L104.05 51.3005ZM100.194 66.2023C99.7401 67.1998 98.5635 67.6404 97.5661 67.1865C96.5687 66.7326 96.1281 65.5561 96.582 64.5586L100.194 66.2023ZM90.3685 82.4511C90.6385 81.3891 91.7183 80.747 92.7804 81.017C93.8424 81.287 94.4845 82.3669 94.2145 83.4289L90.3685 82.4511ZM91.4369 97.8221C91.2882 98.9078 90.2874 99.6673 89.2017 99.5186C88.116 99.3698 87.3565 98.3691 87.5052 97.2834L91.4369 97.8221ZM86.1794 112.29C86.2262 111.195 87.1517 110.346 88.2465 110.392C89.3413 110.439 90.1909 111.365 90.1441 112.46L86.1794 112.29ZM90.1222 127.199C90.164 128.294 89.3102 129.216 88.2152 129.258C87.1201 129.3 86.1985 128.446 86.1566 127.351L90.1222 127.199ZM87.7727 146.072C87.6245 144.986 88.3844 143.986 89.4702 143.837C90.556 143.689 91.5564 144.449 91.7046 145.535L87.7727 146.072ZM230 16.1448C229.773 18.116 229.773 18.116 229.773 18.116C229.773 18.116 229.773 18.116 229.773 18.116C229.773 18.116 229.773 18.116 229.773 18.116C229.773 18.116 229.773 18.116 229.772 18.1159C229.772 18.1158 229.77 18.1157 229.768 18.1155C229.764 18.115 229.758 18.1143 229.75 18.1133C229.733 18.1114 229.706 18.1085 229.671 18.1046C229.6 18.0967 229.492 18.0851 229.349 18.0702C229.063 18.0403 228.637 17.9972 228.079 17.9453C226.965 17.8415 225.328 17.7023 223.252 17.5621L223.519 13.6027C225.631 13.7454 227.302 13.8873 228.447 13.994C229.02 14.0474 229.462 14.0919 229.762 14.1233C229.912 14.139 230.027 14.1514 230.105 14.1599C230.144 14.1642 230.173 14.1676 230.194 14.1699C230.204 14.171 230.212 14.1719 230.218 14.1726C230.22 14.1729 230.223 14.1731 230.224 14.1733C230.225 14.1734 230.226 14.1735 230.226 14.1735C230.226 14.1736 230.227 14.1736 230.227 14.1736C230.227 14.1736 230.227 14.1736 230.227 14.1736C230.227 14.1737 230.227 14.1737 230 16.1448ZM210.055 17.0195C206.047 16.9548 201.587 16.9718 196.824 17.133L196.689 13.1669C201.526 13.0032 206.053 12.986 210.119 13.0516L210.055 17.0195ZM180.352 18.2566C176.061 18.7067 171.682 19.2988 167.296 20.0663L166.612 16.1572C171.097 15.3723 175.567 14.7684 179.938 14.3098L180.352 18.2566ZM154.453 22.8617C150.195 23.9891 146.015 25.3175 141.99 26.8777L140.556 23.1775C144.735 21.5576 149.056 20.1855 153.437 19.0255L154.453 22.8617ZM127.433 34.0867C125.594 35.2446 123.827 36.4763 122.142 37.7858L119.707 34.6525C121.502 33.2579 123.376 31.9518 125.318 30.7287L127.433 34.0867ZM122.142 37.7858C120.206 39.2908 118.382 40.8735 116.663 42.5249L113.914 39.6636C115.731 37.9175 117.66 36.2438 119.707 34.6525L122.142 37.7858ZM107.317 53.5537C104.546 57.5704 102.19 61.8152 100.194 66.2023L96.582 64.5586C98.6661 59.9789 101.135 55.5274 104.05 51.3005L107.317 53.5537ZM94.2145 83.4289C92.9933 88.2325 92.0888 93.0639 91.4369 97.8221L87.5052 97.2834C88.1749 92.3953 89.1063 87.4159 90.3685 82.4511L94.2145 83.4289ZM90.1441 112.46C89.921 117.68 89.9482 122.647 90.1222 127.199L86.1566 127.351C85.9791 122.705 85.9511 117.63 86.1794 112.29L90.1441 112.46ZM91.7046 145.535C92.017 147.822 92.3116 149.628 92.5272 150.858C92.6349 151.473 92.7229 151.944 92.7835 152.258C92.8138 152.416 92.8372 152.534 92.8528 152.612C92.8606 152.651 92.8665 152.679 92.8703 152.698C92.8721 152.707 92.8735 152.714 92.8743 152.718C92.8748 152.72 92.875 152.721 92.8752 152.722C92.8753 152.722 92.8753 152.722 92.8753 152.722C92.8753 152.722 92.8753 152.722 92.8753 152.722C92.8753 152.722 92.8753 152.722 92.8753 152.722C92.8752 152.722 92.8752 152.722 90.9328 153.127C88.9904 153.532 88.9903 153.532 88.9903 153.532C88.9903 153.532 88.9903 153.532 88.9902 153.531C88.9902 153.531 88.9901 153.531 88.9901 153.531C88.9899 153.53 88.9898 153.529 88.9896 153.528C88.9892 153.526 88.9886 153.524 88.988 153.521C88.9866 153.514 88.9848 153.505 88.9824 153.493C88.9776 153.47 88.9708 153.436 88.962 153.392C88.9444 153.305 88.9189 153.176 88.8867 153.009C88.8221 152.673 88.7301 152.181 88.6183 151.543C88.3949 150.268 88.0924 148.412 87.7727 146.072L91.7046 145.535Z" fill="black"/>
</svg>
