<svg width="24" height="25" viewBox="0 0 24 25" fill="none" xmlns="http://www.w3.org/2000/svg">
<rect y="0.99707" width="24" height="24" rx="12" fill="#FFE6E2"/>
<path d="M8.64592 9.64592C8.69236 9.59935 8.74754 9.56241 8.80828 9.5372C8.86903 9.512 8.93415 9.49902 8.99992 9.49902C9.06568 9.49902 9.13081 9.512 9.19155 9.5372C9.2523 9.56241 9.30747 9.59935 9.35392 9.64592L11.9999 12.2929L14.6459 9.64592C14.6924 9.59943 14.7476 9.56255 14.8083 9.53739C14.8691 9.51223 14.9342 9.49929 14.9999 9.49929C15.0657 9.49929 15.1308 9.51223 15.1915 9.53739C15.2522 9.56255 15.3074 9.59943 15.3539 9.64592C15.4004 9.6924 15.4373 9.74759 15.4624 9.80833C15.4876 9.86907 15.5005 9.93417 15.5005 9.99992C15.5005 10.0657 15.4876 10.1308 15.4624 10.1915C15.4373 10.2522 15.4004 10.3074 15.3539 10.3539L12.7069 12.9999L15.3539 15.6459C15.4004 15.6924 15.4373 15.7476 15.4624 15.8083C15.4876 15.8691 15.5005 15.9342 15.5005 15.9999C15.5005 16.0657 15.4876 16.1308 15.4624 16.1915C15.4373 16.2522 15.4004 16.3074 15.3539 16.3539C15.3074 16.4004 15.2522 16.4373 15.1915 16.4624C15.1308 16.4876 15.0657 16.5005 14.9999 16.5005C14.9342 16.5005 14.8691 16.4876 14.8083 16.4624C14.7476 16.4373 14.6924 16.4004 14.6459 16.3539L11.9999 13.7069L9.35392 16.3539C9.30743 16.4004 9.25224 16.4373 9.1915 16.4624C9.13076 16.4876 9.06566 16.5005 8.99992 16.5005C8.93417 16.5005 8.86907 16.4876 8.80833 16.4624C8.74759 16.4373 8.6924 16.4004 8.64592 16.3539C8.59943 16.3074 8.56255 16.2522 8.53739 16.1915C8.51223 16.1308 8.49929 16.0657 8.49929 15.9999C8.49929 15.9342 8.51223 15.8691 8.53739 15.8083C8.56255 15.7476 8.59943 15.6924 8.64592 15.6459L11.2929 12.9999L8.64592 10.3539C8.59935 10.3075 8.56241 10.2523 8.5372 10.1916C8.512 10.1308 8.49902 10.0657 8.49902 9.99992C8.49902 9.93415 8.512 9.86903 8.5372 9.80828C8.56241 9.74754 8.59935 9.69236 8.64592 9.64592Z" fill="#F9442C"/>
</svg>
